<?xml version="1.0" encoding="UTF-8"?>
<svg id="Ebene_1" data-name="Ebene 1" xmlns="http://www.w3.org/2000/svg" viewBox="0 0 97.74 97.74">
  <defs>
    <style>
      .cls-1 {
        fill: none;
        stroke: #000;
        stroke-miterlimit: 10;
      }

      .cls-2 {
        stroke: #000;
        stroke-width: 0px;
      }
    </style>
  </defs>
  <g>
    <g id="_Radiale_Wiederholung_" data-name="&amp;lt;Radiale Wiederholung&amp;gt;">
      <g>
        <path class="cls-2" d="M91.96,54.4c-2.91,0-5.28-2.37-5.28-5.28s2.37-5.28,5.28-5.28,5.28,2.37,5.28,5.28-2.37,5.28-5.28,5.28Z"/>
        <path class="cls-2" d="M91.96,44.34c2.64,0,4.78,2.15,4.78,4.78s-2.15,4.78-4.78,4.78-4.78-2.15-4.78-4.78,2.15-4.78,4.78-4.78M91.96,43.34c-3.19,0-5.78,2.59-5.78,5.78s2.59,5.78,5.78,5.78,5.78-2.59,5.78-5.78-2.59-5.78-5.78-5.78h0Z"/>
      </g>
    </g>
    <g id="_Radiale_Wiederholung_-2" data-name="&amp;lt;Radiale Wiederholung&amp;gt;">
      <g>
        <path class="cls-2" d="M79.16,84.8c-1.41,0-2.74-.55-3.74-1.55-2.06-2.06-2.06-5.41,0-7.47,1-1,2.32-1.55,3.74-1.55s2.74.55,3.74,1.55c2.06,2.06,2.06,5.41,0,7.47-1,1-2.32,1.55-3.74,1.55Z"/>
        <path class="cls-2" d="M79.16,74.73c1.28,0,2.48.5,3.38,1.4.9.9,1.4,2.1,1.4,3.38s-.5,2.48-1.4,3.38c-.9.9-2.1,1.4-3.38,1.4s-2.48-.5-3.38-1.4c-.9-.9-1.4-2.1-1.4-3.38s.5-2.48,1.4-3.38c.9-.9,2.1-1.4,3.38-1.4M79.16,73.73c-1.48,0-2.96.56-4.09,1.69-2.26,2.26-2.26,5.92,0,8.18,1.13,1.13,2.61,1.69,4.09,1.69s2.96-.56,4.09-1.69c2.26-2.26,2.26-5.92,0-8.18-1.13-1.13-2.61-1.69-4.09-1.69h0Z"/>
      </g>
    </g>
    <g id="_Radiale_Wiederholung_-3" data-name="&amp;lt;Radiale Wiederholung&amp;gt;">
      <g>
        <path class="cls-2" d="M48.62,97.24c-2.91,0-5.28-2.37-5.28-5.28s2.37-5.28,5.28-5.28,5.28,2.37,5.28,5.28-2.37,5.28-5.28,5.28Z"/>
        <path class="cls-2" d="M48.62,87.18c2.64,0,4.78,2.15,4.78,4.78s-2.15,4.78-4.78,4.78-4.78-2.15-4.78-4.78,2.15-4.78,4.78-4.78M48.62,86.18c-3.19,0-5.78,2.59-5.78,5.78s2.59,5.78,5.78,5.78,5.78-2.59,5.78-5.78-2.59-5.78-5.78-5.78h0Z"/>
      </g>
    </g>
    <g id="_Radiale_Wiederholung_-4" data-name="&amp;lt;Radiale Wiederholung&amp;gt;">
      <g>
        <path class="cls-2" d="M18.23,84.45c-1.41,0-2.74-.55-3.73-1.55-2.06-2.06-2.06-5.41,0-7.47,1-1,2.32-1.55,3.73-1.55s2.74.55,3.73,1.55c2.06,2.06,2.06,5.41,0,7.47-1,1-2.32,1.55-3.73,1.55Z"/>
        <path class="cls-2" d="M18.23,74.38c1.28,0,2.48.5,3.38,1.4,1.86,1.86,1.86,4.9,0,6.76-.9.9-2.1,1.4-3.38,1.4s-2.48-.5-3.38-1.4c-1.86-1.86-1.86-4.9,0-6.76.9-.9,2.1-1.4,3.38-1.4M18.23,73.38c-1.48,0-2.96.56-4.09,1.69-2.26,2.26-2.26,5.92,0,8.18,1.13,1.13,2.61,1.69,4.09,1.69s2.96-.56,4.09-1.69c2.26-2.26,2.26-5.92,0-8.18-1.13-1.13-2.61-1.69-4.09-1.69h0Z"/>
      </g>
    </g>
    <g id="_Radiale_Wiederholung_-5" data-name="&amp;lt;Radiale Wiederholung&amp;gt;">
      <g>
        <path class="cls-2" d="M5.78,53.9c-2.91,0-5.28-2.37-5.28-5.28s2.37-5.28,5.28-5.28,5.28,2.37,5.28,5.28-2.37,5.28-5.28,5.28Z"/>
        <path class="cls-2" d="M5.78,43.84c2.64,0,4.78,2.15,4.78,4.78s-2.15,4.78-4.78,4.78-4.78-2.15-4.78-4.78,2.15-4.78,4.78-4.78M5.78,42.84C2.59,42.84,0,45.43,0,48.62s2.59,5.78,5.78,5.78,5.78-2.59,5.78-5.78-2.59-5.78-5.78-5.78h0Z"/>
      </g>
    </g>
    <g id="_Radiale_Wiederholung_-6" data-name="&amp;lt;Radiale Wiederholung&amp;gt;">
      <g>
        <path class="cls-2" d="M18.58,23.51c-1.41,0-2.74-.55-3.73-1.55s-1.55-2.32-1.55-3.73.55-2.74,1.55-3.73,2.32-1.55,3.73-1.55,2.74.55,3.73,1.55,1.55,2.32,1.55,3.73-.55,2.74-1.55,3.73-2.32,1.55-3.73,1.55Z"/>
        <path class="cls-2" d="M18.58,13.45c1.28,0,2.48.5,3.38,1.4,1.86,1.86,1.86,4.9,0,6.76-.9.9-2.1,1.4-3.38,1.4s-2.48-.5-3.38-1.4c-1.86-1.86-1.86-4.9,0-6.76.9-.9,2.1-1.4,3.38-1.4M18.58,12.45c-1.48,0-2.96.56-4.09,1.69-2.26,2.26-2.26,5.92,0,8.18,1.13,1.13,2.61,1.69,4.09,1.69s2.96-.56,4.09-1.69c2.26-2.26,2.26-5.92,0-8.18-1.13-1.13-2.61-1.69-4.09-1.69h0Z"/>
      </g>
    </g>
    <g id="_Radiale_Wiederholung_-7" data-name="&amp;lt;Radiale Wiederholung&amp;gt;">
      <g>
        <path class="cls-2" d="M49.12,11.06c-2.91,0-5.28-2.37-5.28-5.28s2.37-5.28,5.28-5.28,5.28,2.37,5.28,5.28-2.37,5.28-5.28,5.28Z"/>
        <path class="cls-2" d="M49.12,1c2.64,0,4.78,2.15,4.78,4.78s-2.15,4.78-4.78,4.78-4.78-2.15-4.78-4.78,2.15-4.78,4.78-4.78M49.12,0C45.92,0,43.34,2.59,43.34,5.78s2.59,5.78,5.78,5.78,5.78-2.59,5.78-5.78S52.31,0,49.12,0h0Z"/>
      </g>
    </g>
    <g id="_Radiale_Wiederholung_-8" data-name="&amp;lt;Radiale Wiederholung&amp;gt;">
      <g>
        <path class="cls-2" d="M79.51,23.86c-1.41,0-2.74-.55-3.74-1.55-2.06-2.06-2.06-5.41,0-7.47,1-1,2.32-1.55,3.74-1.55s2.74.55,3.73,1.55c2.06,2.06,2.06,5.41,0,7.47-1,1-2.32,1.55-3.73,1.55Z"/>
        <path class="cls-2" d="M79.51,13.8c1.28,0,2.48.5,3.38,1.4.9.9,1.4,2.1,1.4,3.38s-.5,2.48-1.4,3.38c-.9.9-2.1,1.4-3.38,1.4s-2.48-.5-3.38-1.4c-.9-.9-1.4-2.1-1.4-3.38s.5-2.48,1.4-3.38c.9-.9,2.1-1.4,3.38-1.4M79.51,12.8c-1.48,0-2.96.56-4.09,1.69-2.26,2.26-2.26,5.92,0,8.18,1.13,1.13,2.61,1.69,4.09,1.69s2.96-.56,4.09-1.69c2.26-2.26,2.26-5.92,0-8.18-1.13-1.13-2.61-1.69-4.09-1.69h0Z"/>
      </g>
    </g>
  </g>
  <g>
    <path class="cls-1" d="M20.25,23.25c1.38-2.08,5.73-8.07,14-11,6.66-2.36,9-2,12-2"/>
    <path class="cls-1" d="M45.87,2.67c-1.59,1.92-6.56,7.4-15.11,9.42-6.88,1.63-8.54,1.48-11.52,1.15"/>
  </g>
  <g>
    <path class="cls-1" d="M10.31,51.34c-.54-2.43-1.85-9.72,1.78-17.72,2.92-6.44,4.8-7.87,6.88-10.04"/>
    <path class="cls-1" d="M14.25,18.25c.28,2.48-.22,10.22-4.69,17.78-3.59,6.08-5.62,7.31-7.92,9.23"/>
  </g>
  <g>
    <path class="cls-1" d="M22.89,77.28c-2.08-1.37-8.09-5.69-11.06-13.95-2.39-6.65-2.04-8.99-2.06-11.99"/>
    <path class="cls-1" d="M2.19,51.75c1.92,1.58,7.43,6.53,9.49,15.06,1.03,4.27,1.56,8.43,1.56,8.43,1,5,0,4,0,5"/>
  </g>
  <path class="cls-1" d="M83.88,82.1c-.54-2.43-1.85-9.72,1.78-17.72,2.92-6.44,4.8-7.87,6.88-10.04"/>
  <path class="cls-1" d="M87.82,49c.28,2.48-1.1,9.77-4.69,17.78-2.89,6.46-4.89,8.46-6.89,10.46"/>
  <g>
    <path class="cls-1" d="M50.42,96.89c1.38-2.08,5.73-8.07,14-11,6.66-2.36,9-2,12-2"/>
    <path class="cls-1" d="M76.04,76.31c-1.59,1.92-6.56,7.4-15.11,9.42-6.88,1.63-8.54,1.48-11.52,1.15"/>
  </g>
  <g>
    <path class="cls-1" d="M95.25,47.25c-2.08-1.37-6.08-5.87-9.05-14.13-2.39-6.65-2.04-8.99-2.06-11.99"/>
    <path class="cls-1" d="M76.57,21.53c1.92,1.58,7.43,6.53,9.49,15.06,1.03,4.27,1.56,8.43,1.56,8.43,1,5,0,4,0,5"/>
  </g>
  <path class="cls-2" d="M18.63,22.47c-.14-.88-1.03-1.41-1.89-1.36,0-.07,0-.15,0-.21.03-1.29-1.97-1.29-2,0,0,.2-.01.4-.02.6-.2.11-.36.31-.41.6-.02.09-.02.18-.03.27,0,0,0,0,0,0,0,.02,0,.03,0,.05-.03.25-.03.48,0,.71,0,.26,0,.51,0,.77,0,.04.02.09.03.13-.36.57-.75,1.14-1.16,1.67-.15.19-.16.55-.1.77.04.13.11.25.2.37-.9,1.84-1.47,3.82-2.31,5.68-.87,1.92-1.83,3.74-2.41,5.78-.02.08-.04.17-.06.25-.11.04-.21.11-.31.2-1.36,1.29-2.71,2.58-4.07,3.88-.76.72.04,1.88.97,1.67.79-.17,1.5-.48,2.12-.9-.03.64-.04,1.28,0,1.92.06,1.05,1.79,1.45,1.96.27.45-3.06.9-6.18,2.09-9.05.54-1.31,1.24-2.54,1.79-3.84.62-1.48,1.09-3.01,1.75-4.47.54-1.19,1.21-2.33,2.16-3.24.75-.72,1.88-1.28,1.68-2.5Z"/>
  <path class="cls-2" d="M18.66,73.8c-.9-1.32-2.28-2.15-3.23-3.41-.55-.72-.71-1.62-1.11-2.42-.39-.78-.95-1.47-1.17-2.32-.14-.54-.58-.73-1.01-.69.33-.24.55-.68.4-1.08-.89-2.29-1.8-4.58-2.93-6.74.29-.26.47-.68.39-1.07-.15-.8-.22-1.59-.21-2.4,0-.02,0-.03,0-.05.03-.04.06-.08.08-.12.69-1.09-1.04-2.1-1.73-1.01-.2.32-.43.6-.71.87-.03.03-.04.06-.07.1-.12-.13-.25-.25-.37-.39-.35-.41-1.05-.36-1.41,0-.42.42-.34.99,0,1.41,2.32,2.93,3.69,6.48,5.02,9.93.17.44.55.73,1.02.71-.32.21-.53.58-.41,1.06.24.93.78,1.7,1.23,2.53.04.07.06.14.09.2-.16.16-.27.38-.25.67.17,2.08.69,4.06,1.55,5.95.34.74,1.32.57,1.7,0,.52.3,1.28.03,1.47-.55.09.06.17.13.27.19.83.5,1.94-.52,1.37-1.37Z"/>
  <path class="cls-2" d="M75.34,80.4s-.04-.02-.06-.03c.13-.43.08-.88-.31-1.26-.77-.76-1.75-.05-2.4.47-1.1.87-2.22,1.72-3.42,2.45-.6.36-1.22.7-1.86.99-.31.14-.62.26-.94.38-.17.06-.33.13-.5.21-.08.04-.17.08-.25.13-.01,0-.01,0-.02.01-.45-.01-.74.24-.87.56-.18-.06-.37-.09-.61,0-1.91.67-3.77,1.47-5.57,2.38-.18-.08-.4-.11-.65-.04-.27.08-.55.16-.82.25-.07-.02-.13-.04-.21-.05-1.46-.08-2.92-.1-4.37-.06-1.22.04-1.27,1.81-.18,1.97-.18.5.05,1.1.53,1.29-.07.08-.15.15-.22.23-.32.38-.4.91-.08,1.31.29.36.88.55,1.29.26,3.34-2.36,6.97-4.26,10.83-5.61.31-.11.51-.32.6-.57.11.04.22.08.36.09.49.02.84-.22,1.26-.41.37-.17.76-.29,1.14-.46.51-.22,1-.48,1.48-.74.28.32.72.48,1.2.2.31-.18.74-.09,1.08-.1.57,0,1.15-.08,1.71-.21,1.12-.27,2.1-.83,2.33-2.05.11-.58.12-1.25-.46-1.59Z"/>
  <path class="cls-2" d="M90.72,53.66c-1.07-.01-1.88-1.47-3.05-.99-.68.28-.75.97-.88,1.6-.15.72-.32,1.44-.49,2.16-.31,1.34-.63,2.68-.95,4.01-.31,1.29-.63,2.56-1.32,3.7-.2.33-.17.64-.04.9-.22.06-.43.2-.57.46-.83,1.53-1.57,3.14-1.99,4.84-.1.39-.17.78-.24,1.18-.31.04-.6.21-.76.47-.44.71-.88,1.41-1.33,2.12-.64,1.02.82,1.94,1.57,1.17.08.73.27,1.31,1.17,1.42.55.07.98-.51,1-1,.06-1.62.12-3.25.51-4.83.38-1.54,1.04-2.97,1.79-4.36.18-.34.14-.65,0-.92.23-.05.45-.19.61-.45.92-1.52,1.31-3.25,1.71-4.96.34.04.69-.09.9-.49.44-.84.82-1.9,1.48-2.6.61-.64,1.34-1.13,1.74-1.95.33-.67-.07-1.49-.86-1.5Z"/>
  <path class="cls-2" d="M91.4,43.09c-.47-.28-.83-.7-.99-1.23-.2-.69-.23-1.39-.66-1.99-.28-.4-.77-.59-1.22-.41-.04-.73-.28-1.34-.54-2.03-.3-.78-.55-1.58-.75-2.39-.1-.42-.39-.62-.72-.68.23-.25.36-.61.23-.93-.73-1.77-1.38-3.6-2.25-5.3-.05-.11-.13-.2-.18-.3.16-.21.24-.49.15-.82-.17-.61-.48-1.33-.47-1.97,0-.6.29-1.16.29-1.77,0-.83-1.12-1.37-1.71-.71-.16.18-.32.36-.49.55-.11.12-.32.47-.47.53.1-.04-.18-.06-.22-.07-.25-.06-.5-.09-.76-.11-.83-.06-1.14.88-.86,1.5.33.75.9,1.34,1.44,1.95.56.64,1.07,1.31,1.47,2.06.85,1.59,1.45,3.33,2.14,5,.14.34.41.61.74.69-.22.22-.36.53-.26.92.29,1.14.73,2.2,1.12,3.31.17.48.11.96.13,1.46.02.62.09,1.23.18,1.84.09.58.22,1.15.38,1.71.16.55.31,1.19.76,1.58.5.43,1.16.36,1.73.12.6-.25,1.2-.52,1.8-.78.72-.31.59-1.38,0-1.73Z"/>
  <path class="cls-2" d="M45.26,9.09c-.6-.78-.53-1.89-1.01-2.75-.32-.58-1.11-.63-1.57-.2-1.13,1.07-2.32,2.08-3.73,2.76-.72.35-1.5.57-2.26.84-.84.3-1.67.62-2.5.95-.32.13-.56.37-.67.68-.25-.2-.58-.3-.88-.19-1.51.59-3.01,1.22-4.48,1.9-.25-.29-.65-.46-1.01-.32-.31.11-.63.2-.94.3-.43.11-.87.21-1.3.32-.22.04-.43.1-.65.13-.94.13-1.97,0-2.88.29-1.1.36-.78,1.95.2,1.97-.47.74-.81,1.65.14,2.16.17.09.35.13.54.15.15.09.32.15.54.14.03,0,.06,0,.09,0,.34.58,1.2.76,1.69.03.2-.3.45-.55.74-.75.32-.22.46-.59.45-.94,2.37-1.35,4.87-2.45,7.41-3.45.32-.13.56-.37.67-.68.25.2.58.31.88.19,1.73-.69,3.56-1.18,5.24-1.99.06-.03.11-.06.17-.09.21.25.54.39.95.25.99-.33,2.02-.43,3.05-.22.4.08.8-.02,1.05-.36.22-.29.32-.79.08-1.11Z"/>
  <circle class="cls-2" cx="47.75" cy="48.75" r="27"/>
</svg>